<svg id="Layer_1" data-name="Layer 1" xmlns="http://www.w3.org/2000/svg" viewBox="0 0 1221 1138"><defs><style>.cls-1{fill:#24533f;}.cls-2{fill:#fce5ef;}</style></defs><title>pinksmiley</title><circle class="cls-1" cx="586" cy="583" r="380"/><path class="cls-2" d="M921.44,356.75C804.25,171.55,559.11,116.43,373.92,233.63S133.6,596,250.8,781.16s362.33,240.31,547.53,123.11S1038.64,541.94,921.44,356.75ZM719.6,401.28a36,36,0,1,1-34.49,37.41A36,36,0,0,1,719.6,401.28ZM432,413a36,36,0,1,1-34.49,37.41A36,36,0,0,1,432,413Zm345.4,311.79a257.74,257.74,0,0,1-177.6,88.83q-9.43.66-18.81.67a259.48,259.48,0,0,1-258.41-241l14-1A245.49,245.49,0,0,0,581,800.26q8.87,0,17.79-.64A245.45,245.45,0,0,0,826.22,537.36l14-1A257.77,257.77,0,0,1,777.41,724.76Z"/></svg>